#!OML:ASF F:\VICON\USERDATA\INSTALL\rory3\rory3.ASF
:FULLY-SPECIFIED
:DEGREES
117
root -0.559299 18.4443 30.3423 4.68837 0.218683 -2.80421
lowerback 12.1552 3.16206 5.64366
upperback -1.86814 5.15014 0.831583
thorax -8.40996 2.24183 -3.25324
lowerneck -20.0978 -5.65036 -1.61748
upperneck 14.5733 -7.95801 3.80005
head 8.02363 -3.47508 0.518222
rclavicle -8.89561e-015 1.23246e-014
rhumerus -33.5068 25.6397 -95.1732
rradius 125.836
rwrist -24.4526
rhand -13.5377 41.7588
rfingers 7.12502
rthumb 12.5748 12.1573
lclavicle -8.89561e-015 1.23246e-014
lhumerus -70.4367 -2.65293 84.8904
lradius 90.8638
lwrist 36.499
lhand -31.0186 10.9187
lfingers 7.12502
lthumb -4.30113 40.855
rfemur 15.7785 9.16731 32.9231
rtibia 41.192
rfoot 26.0233 -4.89697
rtoes 12.9114
lfemur -36.5387 -2.54893 -17.7813
ltibia 33.0358
lfoot 6.07614 -11.8087
ltoes -13.5143
118
root -0.563248 18.4228 30.8867 4.57535 0.0861686 -3.32169
lowerback 12.3115 3.21395 6.03995
upperback -1.9105 5.29972 0.904695
thorax -8.5064 2.29138 -3.43487
lowerneck -20.0449 -5.61254 -1.51003
upperneck 14.4898 -7.9195 3.73025
head 7.97799 -3.46078 0.48588
rclavicle -5.58585e-014 -2.06736e-014
rhumerus -34.1219 25.7449 -95.6464
rradius 124.875
rwrist -24.161
rhand -13.8908 41.4031
rfingers 7.12502
rthumb 12.2344 11.781
lclavicle -5.58585e-014 -2.06736e-014
lhumerus -70.9145 -2.42181 84.742
lradius 91.9715
lwrist 36.7097
lhand -29.8439 8.0927
lfingers 7.12502
lthumb -3.16674 38.0489
rfemur 15.6407 9.71252 33.7733
rtibia 44.4812
rfoot 24.8506 -6.58394
rtoes 11.0464
lfemur -35.4786 -1.58701 -17.9258
ltibia 29.3418
lfoot 6.17292 -12.494
ltoes -16.3668
119
root -0.567621 18.3907 31.4192 4.48577 0.284389 -3.76456
lowerback 12.3755 3.10595 6.3757
upperback -1.87667 5.21912 1.00483
thorax -8.49612 2.23927 -3.50343
lowerneck -19.7864 -5.54938 -1.37958
upperneck 14.0532 -7.83241 3.64192
head 7.77672 -3.43511 0.460162
rclavicle -2.127e-014 -1.66979e-014
rhumerus -34.6754 25.8928 -96.0936
rradius 123.858
rwrist -24.0237
rhand -14.3139 40.1621
rfingers 7.12502
rthumb 11.8265 10.5161
lclavicle -2.127e-014 -1.66979e-014
lhumerus -71.0403 -2.09106 84.7092
lradius 92.9451
lwrist 36.921
lhand -28.5858 5.73616
lfingers 7.12502
lthumb -1.9517 35.707
rfemur 15.2773 9.80034 34.5068
rtibia 47.9961
rfoot 24.2752 -8.83899
rtoes 11.7108
lfemur -34.8259 -0.661831 -18.2479
ltibia 26.5368
lfoot 6.70781 -12.3439
ltoes -16.0715
120
root -0.56868 18.3515 31.9613 4.35029 0.585374 -3.79125
lowerback 12.1927 2.98696 6.32803
upperback -1.68812 5.02915 1.02223
thorax -8.20963 2.16659 -3.40409
lowerneck -19.7422 -5.56567 -1.46289
upperneck 13.6329 -7.8274 3.73581
head 7.6368 -3.43736 0.511498
rclavicle -2.28105e-014 -1.27222e-014
rhumerus -35.243 25.8717 -96.3887
rradius 122.761
rwrist -23.7589
rhand -14.4715 39.432
rfingers 7.12502
rthumb 11.6744 9.77723
lclavicle -2.28105e-014 -1.27222e-014
lhumerus -70.8272 -1.68112 84.7614
lradius 93.7536
lwrist 36.9933
lhand -27.5551 4.24103
lfingers 7.12502
lthumb -0.956266 34.2186
rfemur 14.8083 9.5437 34.6159
rtibia 51.7577
rfoot 24.2014 -10.8524
rtoes 14.1138
lfemur -33.9674 0.486672 -19.3056
ltibia 24.6954
lfoot 5.94308 -12.2221
ltoes -20.4356
121
root -0.569676 18.3035 32.5155 4.02399 0.811827 -3.49485
lowerback 12.0595 2.89377 6.01165
upperback -1.41246 4.82145 0.893906
thorax -7.8666 2.0971 -3.30871
lowerneck -19.7725 -5.54126 -1.4945
upperneck 13.3482 -7.79715 3.8814
head 7.55464 -3.41556 0.570908
rclavicle -4.06018e-014 7.95139e-015
rhumerus -35.9522 25.6536 -96.9095
rradius 121.479
rwrist -23.0759
rhand -14.692 39.3279
rfingers 7.12502
rthumb 11.4618 9.66119
lclavicle -4.06018e-014 7.95139e-015
lhumerus -70.3865 -1.38906 84.8217
lradius 94.5836
lwrist 37.5348
lhand -26.8219 3.44735
lfingers 7.12502
lthumb -0.24806 33.427
rfemur 14.3855 9.25218 34.3258
rtibia 55.7686
rfoot 24.1597 -12.6418
rtoes 16.6336
lfemur -32.9684 1.50931 -20.6395
ltibia 23.5358
lfoot 6.23017 -11.1705
ltoes -20.8696
122
root -0.578297 18.2363 33.0468 3.68807 1.2358 -3.31726
lowerback 12.2699 2.72427 5.78935
upperback -1.21778 4.56048 0.800344
thorax -7.80889 1.98335 -3.24663
lowerneck -19.8528 -5.47432 -1.429
upperneck 13.1892 -7.72072 3.91132
head 7.51223 -3.37481 0.580195
rclavicle -2.08227e-014 2.06736e-014
rhumerus -36.6505 25.296 -97.4129
rradius 120.045
rwrist -22.1883
rhand -15.3133 39.1796
rfingers 7.12502
rthumb 10.8626 9.48057
lclavicle -2.08227e-014 2.06736e-014
lhumerus -69.8323 -1.32032 84.9609
lradius 95.3305
lwrist 38.0238
lhand -24.3545 0.941822
lfingers 7.12502
lthumb 2.135 30.9109
rfemur 13.6338 8.7063 34.1313
rtibia 60.0534
rfoot 24.2736 -14.3362
rtoes 13.5317
lfemur -32.253 2.2917 -21.7162
ltibia 22.9931
lfoot 6.22234 -11.1917
ltoes -23.3468
123
root -0.591558 18.152 33.5574 3.30622 1.79205 -3.01189
lowerback 12.8206 2.54303 5.45059
upperback -1.06559 4.28869 0.68058
thorax -7.99716 1.85772 -3.16716
lowerneck -20.2057 -5.50471 -1.51285
upperneck 13.2537 -7.75997 4.02604
head 7.60209 -3.37888 0.616529
rclavicle 9.59136e-015 3.1408e-014
rhumerus -37.2859 24.6087 -97.7485
rradius 118.415
rwrist -21.5606
rhand -15.6511 39.0091
rfingers 7.12502
rthumb 10.5367 9.29322
lclavicle 9.59136e-015 3.1408e-014
lhumerus -68.981 -1.33198 85.1085
lradius 95.4341
lwrist 37.2705
lhand -25.7869 2.11912
lfingers 7.12502
lthumb 0.751558 32.0975
rfemur 12.6675 7.93025 33.7304
rtibia 64.5762
rfoot 24.8065 -15.8393
rtoes 27.3273
lfemur -31.6706 2.96583 -22.8367
ltibia 22.9611
lfoot 6.56291 -11.6172
ltoes -22.1422
124
root -0.614391 18.0585 34.0733 2.89816 2.21887 -2.63488
lowerback 13.3399 2.41899 4.77942
upperback -0.948563 4.0396 0.612883
thorax -8.22709 1.75766 -2.84581
lowerneck -20.2608 -5.49644 -1.63381
upperneck 13.166 -7.73388 4.15892
head 7.59225 -3.36036 0.68206
rclavicle 4.88016e-014 1.39149e-014
rhumerus -38.114 23.7938 -98.0349
rradius 116.752
rwrist -21.4668
rhand -15.5816 38.9585
rfingers 7.12502
rthumb 10.6038 9.24601
lclavicle 4.88016e-014 1.39149e-014
lhumerus -68.1841 -1.35487 85.3521
lradius 95.543
lwrist 36.4826
lhand -25.0253 1.32666
lfingers 7.12502
lthumb 1.48714 31.3012
rfemur 11.4512 7.20001 33.2122
rtibia 69.2813
rfoot 25.9197 -16.947
rtoes 24.7425
lfemur -31.1608 3.8044 -23.9283
ltibia 23.6148
lfoot 6.42911 -12.6121
ltoes -19.4778
125
root -0.643653 17.9536 34.5934 2.42836 2.542 -2.6294
lowerback 13.8812 2.29881 4.23647
upperback -0.894108 3.82728 0.708467
thorax -8.53403 1.67159 -2.4278
lowerneck -19.9817 -5.43341 -1.5229
upperneck 13.0006 -7.64283 3.99234
head 7.4764 -3.33641 0.630506
rclavicle 6.68165e-014 5.96354e-015
rhumerus -39.2075 22.9597 -98.4688
rradius 115.102
rwrist -21.2168
rhand -15.7975 38.7877
rfingers 7.12502
rthumb 10.3955 9.06467
lclavicle 6.68165e-014 5.96354e-015
lhumerus -67.609 -1.47054 85.9305
lradius 97.0898
lwrist 37.5831
lhand -29.1594 8.31406
lfingers 7.12502
lthumb -2.50565 38.2791
rfemur 9.99251 6.43262 32.9652
rtibia 74.0383
rfoot 27.3 -17.7429
rtoes 24.5392
lfemur -30.8281 4.63744 -24.4501
ltibia 25.134
lfoot 5.31086 -14.4226
ltoes -14.6537
